<svg width="20" height="19" viewBox="0 0 20 19" fill="none" xmlns="http://www.w3.org/2000/svg">
<path d="M5.43186 1.9L5.20154 0H0V1.9H3.49328L4.93282 14.25H18.3685L20 1.9H5.43186ZM16.6699 12.35H6.64108L5.68138 3.8H17.8023L16.6699 12.35Z" fill="white"/>
<path d="M6.69866 19C7.7587 19 8.61804 18.1493 8.61804 17.1C8.61804 16.0507 7.7587 15.2 6.69866 15.2C5.63861 15.2 4.77927 16.0507 4.77927 17.1C4.77927 18.1493 5.63861 19 6.69866 19Z" fill="white"/>
<path d="M15.3359 19C16.3959 19 17.2553 18.1493 17.2553 17.1C17.2553 16.0507 16.3959 15.2 15.3359 15.2C14.2758 15.2 13.4165 16.0507 13.4165 17.1C13.4165 18.1493 14.2758 19 15.3359 19Z" fill="white"/>
</svg>
